<?xml version="1.0" encoding="UTF-8" standalone="no"?>
<!-- Created with Inkscape (http://www.inkscape.org/) -->

<svg
   width="165.03653mm"
   height="135.92462mm"
   viewBox="0 0 165.03653 135.92462"
   version="1.1"
   id="svg1"
   xml:space="preserve"
   inkscape:version="1.3.2 (091e20e, 2023-11-25)"
   sodipodi:docname="foot.svg"
   xmlns:inkscape="http://www.inkscape.org/namespaces/inkscape"
   xmlns:sodipodi="http://sodipodi.sourceforge.net/DTD/sodipodi-0.dtd"
   xmlns="http://www.w3.org/2000/svg"
   xmlns:svg="http://www.w3.org/2000/svg"><sodipodi:namedview
     id="namedview1"
     pagecolor="#ffffff"
     bordercolor="#000000"
     borderopacity="0.25"
     inkscape:showpageshadow="2"
     inkscape:pageopacity="0.0"
     inkscape:pagecheckerboard="0"
     inkscape:deskcolor="#d1d1d1"
     inkscape:document-units="mm"
     inkscape:zoom="0.4814018"
     inkscape:cx="-75.82024"
     inkscape:cy="352.09673"
     inkscape:window-width="1920"
     inkscape:window-height="1052"
     inkscape:window-x="0"
     inkscape:window-y="28"
     inkscape:window-maximized="0"
     inkscape:current-layer="layer1" /><defs
     id="defs1" /><g
     inkscape:label="Слой 1"
     inkscape:groupmode="layer"
     id="layer1"
     transform="translate(-32.497569,-52.102882)"><path
       style="fill:#000000"
       d="m 82.26208,187.35018 c -1.550498,-1.30466 -1.301447,-3.50732 0.500173,-4.42363 0.860142,-0.43748 2.013105,-0.46663 16.27157,-0.41138 15.520997,0.0601 28.818667,-0.0494 27.119787,-0.22335 -13.16845,-1.34858 -20.62864,-2.61548 -37.70312,-6.40284 -11.46791,-2.54374 -11.404975,-2.53186 -11.615092,-2.19189 -0.09148,0.14801 -0.459758,1.42588 -0.818406,2.83972 -0.358648,1.41383 -0.837443,2.85349 -1.06399,3.19925 l -0.411903,0.62864 -19.390811,-0.0712 -19.390811,-0.0712 -1.125783,-0.7451 c -2.038572,-1.34924 -2.130229,-1.80551 -2.135776,-10.63198 -0.0045,-7.20421 0.02741,-7.72577 0.522748,-8.53821 0.290164,-0.47591 0.8301,-1.00313 1.199859,-1.1716 0.399323,-0.18195 0.615701,-0.45379 0.532918,-0.66952 -0.347573,-0.90576 -0.452184,-7.87385 -0.165165,-11.00151 0.78973,-8.60572 3.075472,-18.17304 5.370458,-22.47888 0.909497,-1.70639 2.385729,-3.10382 3.278845,-3.10382 0.435883,0 0.60967,-0.20432 0.731413,-0.8599 0.226682,-1.22067 1.411932,-11.2919 1.629937,-13.84978 l 0.182558,-2.14198 -1.948832,-0.18085 c -3.285198,-0.30487 -3.905628,-0.45545 -4.074973,-0.98901 -0.146337,-0.46107 0.331435,-6.326165 2.271414,-27.883685 1.732769,-19.254948 2.153546,-23.814751 2.20227,-23.865192 0.02799,-0.02898 1.164567,0.01946 2.525716,0.107643 l 2.474815,0.160336 -0.158037,2.009023 c -0.18691,2.376061 -2.92528,34.135219 -3.431157,39.793982 -0.192657,2.155062 -0.253654,3.978014 -0.135551,4.051006 0.118103,0.07299 2.506326,0.304641 5.307161,0.514775 2.800835,0.210134 8.009458,0.616826 11.574718,0.90376 7.027939,0.565612 24.016693,1.731332 29.413067,2.018242 l 3.35161,0.1782 0.152134,-1.16193 c 0.08367,-0.63906 0.51495,-4.436149 0.95839,-8.437971 1.099911,-9.926132 4.491556,-37.09571 4.665976,-37.37793 0.16372,-0.264904 4.87675,0.03533 5.19845,0.33116 0.11862,0.109081 -0.14932,3.458837 -0.59543,7.443904 -1.92927,17.233976 -4.51403,42.093697 -4.5146,43.420547 -3.7e-4,0.83654 -0.12575,1.0502 -0.83003,1.4144 -0.456278,0.23595 -1.617138,0.50702 -2.579687,0.60237 l -1.75009,0.17338 0.08882,1.52032 c 0.130929,2.241 0.391333,2.99565 0.994836,2.88304 3.828241,-0.71434 5.360441,-8.5e-4 10.386351,4.83654 1.08934,1.04848 2.13693,1.84097 2.38125,1.8014 0.23994,-0.0389 0.79343,-0.13385 1.22999,-0.21109 1.65982,-0.29365 3.70538,1.81776 3.47711,3.58904 -0.11065,0.85861 -0.0146,1.00859 1.3191,2.05959 1.35653,1.06901 1.47144,1.11044 2.01801,0.72761 0.31876,-0.22327 1.09427,-0.40595 1.72335,-0.40595 1.88246,0 3.15252,1.77347 2.50278,3.49481 -0.27707,0.73405 -0.22878,0.79814 1.68802,2.24084 1.79265,1.34926 2.03413,1.45744 2.63853,1.18206 1.54981,-0.70614 3.52187,-0.063 4.1021,1.33779 0.18068,0.4362 0.2375,1.19429 0.13674,1.8244 -0.19826,1.23984 -0.53889,0.88052 4.29812,4.53392 5.48399,4.14206 7.13163,4.75161 18.0326,6.67117 8.76256,1.54302 10.76616,2.02947 13.13089,3.18807 4.62566,2.26633 7.68595,6.10568 9.61805,12.06655 0.58979,1.81962 1.03736,2.68587 1.83457,3.55074 1.13361,1.22983 1.61068,2.53913 2.14701,5.89239 0.49777,3.11218 0.23587,3.47813 -3.25746,4.55156 -9.16588,2.81651 -25.22283,5.5434 -38.28973,6.50259 -1.23692,0.0908 -2.29856,0.21293 -2.3592,0.27139 -0.0606,0.0585 11.21279,0.1063 25.05205,0.1063 15.70572,0 25.4173,0.097 25.84085,0.25799 1.79881,0.68391 2.17869,3.22304 0.68381,4.57066 l -0.80711,0.7276 H 134.7687 83.067133 Z m 65.98424,-13.86072 c 6.23276,-0.69714 11.03153,-1.4195 16.00729,-2.40959 5.00589,-0.99609 10.11746,-2.41028 10.25735,-2.83786 0.0609,-0.18629 -0.37721,-0.78481 -0.97368,-1.33004 -0.96929,-0.88602 -1.12512,-1.20365 -1.46691,-2.99006 -1.21997,-6.3762 -4.51998,-10.31693 -10.06572,-12.02006 -1.16416,-0.35753 -5.09323,-1.19076 -8.73125,-1.85163 -13.05334,-2.37122 -15.22485,-3.26143 -22.75416,-9.32811 l -2.64583,-2.13186 -1.5875,1.58501 -1.5875,1.58502 1.05833,0.93591 c 0.58208,0.51475 2.48708,2.01053 4.23333,3.32394 1.74625,1.31342 3.21072,2.41836 3.25439,2.45543 0.0437,0.0371 -0.77111,0.686 -1.81061,1.44207 -5.36073,3.89906 -9.66027,9.76336 -10.83246,14.77476 -0.36064,1.54188 -0.37021,1.50191 0.41708,1.74332 0.46088,0.14132 0.62213,-0.005 0.96452,-0.87692 1.36504,-3.47504 5.46615,-8.61727 8.97804,-11.2572 0.88372,-0.66431 2.70433,-1.75269 4.04579,-2.41863 l 2.43904,-1.2108 3.41585,0.67799 c 1.87873,0.37289 5.91617,1.10502 8.97211,1.62696 11.05863,1.88877 13.87885,2.89307 16.60847,5.91443 1.58741,1.75708 3.10299,5.3568 3.10299,7.37006 0,0.74982 -0.45814,0.94136 -3.90024,1.63068 -9.38994,1.88042 -18.54931,2.83491 -29.75574,3.10081 -12.0913,0.2869 -18.29321,-0.38574 -35.66485,-3.86812 -16.580734,-3.32382 -23.105516,-4.28238 -35.867341,-5.2693 -7.995196,-0.61829 -23.008194,-1.23569 -23.999246,-0.98696 -0.960582,0.24109 -2.225414,1.37193 -2.367843,2.117 -0.116488,0.60936 -0.05502,0.63357 2.019122,0.79506 1.176597,0.0916 3.865674,0.16735 5.975726,0.16831 8.952929,0.004 23.295518,1.17622 34.26354,2.80023 4.017933,0.59493 10.691136,1.83958 17.59479,3.28171 11.954022,2.4971 15.452872,3.09651 21.563542,3.69413 1.60073,0.15656 3.32713,0.33118 3.83646,0.38805 0.50932,0.0569 5.21229,0.0663 10.45104,0.021 7.53293,-0.0652 10.57636,-0.20003 14.55208,-0.64471 z M 120.1348,145.5555 c 2.19132,-2.19132 -0.27628,-5.60183 -3.1167,-4.30765 -1.55716,0.70949 -1.91811,2.95849 -0.67442,4.20218 1.04826,1.04826 2.7996,1.09698 3.79112,0.10547 z m -8.51292,-6.72005 c 1.05375,-1.05375 1.05621,-2.34132 0.007,-3.5159 -0.63446,-0.71008 -0.95853,-0.85806 -1.87916,-0.85806 -0.92063,0 -1.24471,0.14798 -1.87916,0.85806 -1.04949,1.17458 -1.04703,2.46215 0.007,3.5159 0.60656,0.60655 1.01049,0.77339 1.87244,0.77339 0.86195,0 1.26588,-0.16684 1.87243,-0.77339 z m -37.162818,-0.69419 c 3.273398,-0.57012 4.876505,-1.06713 7.739565,-2.39948 4.472803,-2.08145 8.964883,-5.42185 14.558508,-10.82599 l 2.807726,-2.71261 2.038389,1.69137 c 1.12111,0.93026 2.12078,1.69138 2.22147,1.69138 0.23945,0 2.75236,-2.62185 2.74101,-2.85983 -0.0104,-0.21876 -3.84099,-3.11133 -5.22934,-3.94884 -0.60598,-0.36555 -1.415108,-0.59262 -2.121274,-0.59531 -1.133851,-0.004 -1.177085,0.0314 -6.35,5.24085 -5.480752,5.5195 -8.430739,7.81802 -12.235612,9.5335 -8.873964,4.00096 -22.98804,2.24098 -33.276531,-4.14947 -1.212073,-0.75285 -2.289881,-1.36882 -2.395128,-1.36882 -0.176438,0 -1.093934,2.2725 -1.090953,2.70212 0.0044,0.63265 5.950792,3.99355 9.673468,5.46742 6.661285,2.63733 14.719682,3.61338 20.918702,2.53371 z m 47.376338,-1.20537 c 0.84705,-0.88805 1.54009,-1.70401 1.54009,-1.81326 0,-0.28478 -3.65192,-3.18547 -3.96875,-3.15235 -0.14552,0.0152 -0.95818,0.77649 -1.80591,1.69173 l -1.54133,1.66407 2.07049,1.59021 c 1.13878,0.87461 2.09183,1.60011 2.11791,1.61221 0.0261,0.0121 0.74045,-0.70457 1.5875,-1.59261 z m -19.26807,-3.52491 c 0.401,-0.20737 0.87134,-0.68922 1.04519,-1.07079 1.24626,-2.73524 -2.09557,-5.17705 -4.202174,-3.07045 -1.118348,1.11835 -1.072975,2.41953 0.126186,3.61869 0.989938,0.98993 1.842668,1.13695 3.030798,0.52255 z m 10.89393,-3.20371 c 1.02082,-1.03066 1.6005,-1.8052 1.43563,-1.91823 -0.15208,-0.10426 -0.96263,-0.71509 -1.80123,-1.35739 l -1.52473,-1.16782 -1.70449,1.68934 c -0.93747,0.92914 -1.70449,1.77039 -1.70449,1.86945 0,0.19542 3.1742,2.61331 3.43075,2.61331 0.086,0 0.92688,-0.7779 1.86856,-1.72866 z m -38.960325,0.42144 c 4.715744,-0.97312 9.352912,-3.97788 13.500927,-8.74825 2.590839,-2.97956 3.363364,-4.13795 3.041664,-4.56091 -0.685648,-0.90147 -1.722654,-4.76781 -2.058482,-7.67477 -0.172766,-1.49548 -0.190056,-1.52139 -1.016613,-1.52346 -1.943688,-0.005 -26.40634,-1.65204 -31.267939,-2.1054 -1.455208,-0.1357 -3.298509,-0.28258 -4.096223,-0.32638 l -1.45039,-0.0797 -0.309477,2.91041 c -0.170212,1.60073 -0.623978,5.62219 -1.008369,8.93657 -0.384391,3.31438 -0.630276,6.13717 -0.546413,6.27287 0.289948,0.46914 4.883736,3.41017 6.623498,4.24048 6.049157,2.887 12.800871,3.85265 18.587817,2.65849 z m 103.577155,19.95912 c -0.64149,-0.45868 -0.75829,-1.18425 -0.32189,-1.99966 0.15038,-0.28099 3.81155,-2.62284 8.13593,-5.20412 6.8477,-4.08748 8.00688,-4.69375 8.98099,-4.69724 1.43151,-0.005 2.43149,0.91236 2.63316,2.41594 0.2033,1.51572 -0.68441,2.4522 -3.42283,3.61093 -1.19949,0.50754 -4.83848,2.07156 -8.08666,3.47561 -3.24818,1.40404 -6.22474,2.61387 -6.61458,2.6885 -0.42402,0.0812 -0.948,-0.0353 -1.30412,-0.28996 z m -6.35727,-7.95128 c -1.06261,-0.74428 -0.74538,-1.50116 2.1268,-5.07428 11.0212,-13.71088 11.60565,-14.35759 12.97531,-14.35759 1.33647,0 2.29376,0.88971 2.48409,2.30873 0.1469,1.09519 0.11138,1.15793 -1.79709,3.17458 -4.9028,5.1807 -13.40366,13.64147 -14.04891,13.98265 -0.89607,0.47381 -1.01849,0.47142 -1.7402,-0.0341 z m -8.26562,-4.56578 -0.59246,-0.47974 0.44902,-2.23224 c 0.68943,-3.42741 4.06498,-16.77626 4.54666,-17.98011 0.49241,-1.23065 1.00955,-1.58234 2.32675,-1.58234 1.34257,0 2.58802,1.15401 2.58802,2.398 0,1.38252 -6.83793,19.70095 -7.51411,20.12986 -0.55016,0.34897 -1.16696,0.26232 -1.80388,-0.25343 z"
       id="path1" /></g></svg>
