<svg
  width="539.37091"
  height="575.84851"
  viewBox="0 0 539.37091 575.84851"
  version="1.1"
  id="svg1"
  xmlns="http://www.w3.org/2000/svg"
  xmlns:svg="http://www.w3.org/2000/svg"
>
  <defs id="defs1" />
  <g id="g1" transform="translate(-258.48512,-206.63193)">
    <path
      d="m 308,782.08 c -16.8,-3.49 -24.58,-23.85 -14.25,-37.3 1.51,-1.98 9.73,-9.85 18.25,-17.51 13.41,-12.04 34.3,-33.15 64.55,-65.23 4.43,-4.7 17.91,-18.89 29.96,-31.54 64.19,-67.39 80.16,-84.1 96.99,-101.5 8.8,-9.1 25.55,-26.66 37.22,-39.02 11.67,-12.37 22.77,-23.71 24.66,-25.21 5.43,-4.29 18.04,-21.77 23.06,-31.98 6.16,-12.52 8.85,-23.59 8.77,-36.17 l -0.06,-9.87 9.66,-9.13 c 5.31,-5.01 15.29,-14.53 22.17,-21.13 6.89,-6.61 16.35,-15.61 21.02,-20 4.67,-4.4 19.3,-18.35 32.5,-31.02 13.2,-12.66 28.7,-27.51 34.45,-33 16.21,-15.48 16.62,-16.02 17.93,-23.63 1.49,-8.64 2.88,-11.81 9.06,-20.57 5.31,-7.55 15.03,-15.46 23.94,-19.5 13.54,-6.13 28.58,1.53 29.89,15.22 0.91,9.39 -5.46,22.61 -16.13,33.47 -6.86,6.99 -13.96,11.05 -23.64,13.51 -6.23,1.59 -6.81,2.01 -14,10.19 -11.62,13.21 -16.53,18.89 -33.99,39.34 -8.92,10.45 -17.19,20.13 -18.37,21.5 -1.18,1.38 -4.61,5.43 -7.64,9 -3.03,3.58 -5.75,6.73 -6.05,7 -0.3,0.27 -8.62,9.91 -18.5,21.41 -9.87,11.5 -23.42,27.25 -30.1,35 -6.69,7.75 -12.06,14.2 -11.93,14.33 0.12,0.13 3.34,-0.43 7.15,-1.24 18.05,-3.82 32.01,-0.19 42.33,11 6.75,7.33 8.61,12.36 8.53,23 -0.11,12.61 -2.71,19.04 -10.93,27.01 l -6.19,6 3.35,4.87 c 12.04,17.46 5.78,43.03 -12.99,53.11 -2.04,1.09 -3.5,2.44 -3.24,3 5.26,11.59 5.97,14.26 5.91,22.01 -0.07,9.86 -2.73,17.39 -8.41,23.85 -4.12,4.67 -12.25,9.95 -17.24,11.2 -2.06,0.51 -2.64,1.13 -2.18,2.32 2.51,6.49 3.57,14.88 2.6,20.42 -2.96,16.77 -14.28,28.47 -31.61,32.64 -2.75,0.66 -11.97,3.66 -20.5,6.66 -49.88,17.58 -85.95,25.24 -113.93,24.17 l -12.42,-0.47 -10.28,6.94 c -5.65,3.81 -11.06,6.78 -12.01,6.6 -0.95,-0.18 -3.31,-2.54 -5.25,-5.24 l -3.53,-4.91 13.17,-12.73 13.16,-12.73 23.8,0.09 c 24.23,0.09 35.15,-1.03 55.1,-5.69 8.98,-2.09 31.19,-8.9 31.18,-9.55 0,-0.31 -4.97,-1.56 -11.03,-2.76 -13.27,-2.64 -20.08,-5.61 -25.61,-11.17 -10.7,-10.76 -12.81,-26.32 -5.52,-40.83 l 2.91,-5.81 -2.15,-8.8 -2.16,-8.81 -10,10.31 c -12.54,12.92 -28.91,30.04 -37.98,39.73 -9.91,10.59 -26.93,28.46 -41.47,43.57 -46.11,47.87 -64.41,67.67 -79.98,86.51 -5.23,6.32 -10.4,12.29 -11.5,13.26 -5.48,4.86 -13.78,7.21 -20.5,5.81 z M 596.62,646.49 c 3.67,-1.5 7.66,-6.5 9.31,-11.67 2.38,-7.45 -2.34,-16.34 -10.21,-19.23 -4.67,-1.71 -31.07,-3.59 -50.55,-3.59 -10.42,0 -12.22,0.25 -14.46,2.02 -5.26,4.13 -5.81,12.34 -1.19,17.82 3.42,4.06 7.41,5.41 32.98,11.17 12.65,2.85 23.45,5.34 24,5.52 1.43,0.48 6.47,-0.54 10.12,-2.04 z m 25.9,-54.29 c 10.82,-6.21 12.25,-19.93 2.93,-28.11 -5.35,-4.69 -9.71,-5.39 -29.45,-4.7 -57.21,1.98 -55.73,1.83 -60.99,6.26 -6.36,5.35 -7.7,12.6 -3.76,20.34 1.61,3.17 3.52,5.09 6.74,6.76 l 4.49,2.34 38.01,-0.3 c 37.59,-0.29 38.05,-0.32 42.03,-2.59 z M 588.5,542.07 c 15.4,-1.61 31.6,-3.22 36,-3.57 18.07,-1.46 27.13,-11.71 22.06,-24.98 -3.18,-8.32 -10.49,-12.21 -20.93,-11.11 -24.78,2.62 -68.75,8.93 -72.05,10.35 -10.31,4.46 -12.68,19.36 -4.3,27.08 2.05,1.89 8.43,4.93 10.72,5.11 0.28,0.02 13.1,-1.28 28.5,-2.88 z m 29.31,-58.14 c 30.31,-4.92 34.25,-6.72 37.35,-17.07 2.11,-7.06 -2.64,-16.49 -9.83,-19.5 -6.47,-2.7 -10.74,-2.07 -42.83,6.36 -22.46,5.91 -27.54,7.89 -30.08,11.75 -4.31,6.59 -1.69,17.78 4.87,20.84 6.85,3.19 5.9,3.24 40.52,-2.38 z M 367.17,771.48 c -3.47,-1.51 -6.69,-4.74 -7.71,-7.73 -0.42,-1.22 1.74,-4.54 7.15,-11 7.92,-9.45 40.02,-41.75 41.5,-41.75 0.87,0 10.77,13.03 12.84,16.91 1.57,2.93 1.61,8.34 0.08,12.01 -0.74,1.8 -5.34,5.79 -12.85,11.14 -6.42,4.59 -15.28,10.92 -19.68,14.07 -11.46,8.21 -14.77,9.2 -21.33,6.35 z m -57.95,-78.73 c -27.64,-39.24 -49.14,-70.99 -50.16,-74.05 -1.47,-4.47 -0.02,-10.62 3.2,-13.56 2.63,-2.4 18.64,-14.18 30.73,-22.61 7.4,-5.15 9.09,-5.91 13.13,-5.91 2.66,0 5.74,0.71 7.2,1.67 2.35,1.54 10.21,12.38 29.88,41.21 4.13,6.05 11.2,16.33 15.72,22.85 4.52,6.51 8.08,11.99 7.9,12.17 -0.18,0.18 -11.06,11.39 -24.19,24.91 -13.12,13.51 -24.23,24.57 -24.67,24.57 -0.45,0 -4.38,-5.06 -8.74,-11.25 z m 22.62,-109.5 c -3.5,-3.81 -8.2,-10.24 -7.73,-10.59 0.21,-0.16 7.47,-6.24 16.13,-13.52 15.9,-13.38 18.23,-16 25.5,-28.64 2.21,-3.85 8.72,-15.1 14.47,-25 5.75,-9.9 15.53,-26.77 21.73,-37.5 6.21,-10.73 12.17,-20.47 13.26,-21.66 3.12,-3.4 12.02,-7.71 29.3,-14.16 26.32,-9.84 31.2,-11.91 50,-21.19 18.51,-9.14 18.32,-9.02 46.45,-31.89 8.9,-7.24 12.54,-9.1 17.83,-9.1 16.94,0 27.05,20.38 21.34,43.03 -2.49,9.87 -9.3,24.08 -15.37,32.08 -3.65,4.81 -26.37,28.4 -84,87.21 -7.02,7.15 -12.98,12.78 -13.25,12.51 -0.28,-0.28 0.33,-2.94 1.35,-5.92 1.86,-5.42 10.21,-39.56 12.21,-49.91 l 1.06,-5.5 11.88,-6.92 c 14.71,-8.57 34.57,-22.93 45.38,-32.82 13.8,-12.63 22.53,-28.27 22.59,-40.44 0.04,-7.43 -1.28,-10.32 -4.7,-10.32 -3.7,0.01 -6.9,2.12 -18.77,12.39 -5.5,4.76 -12.25,10.15 -15,11.98 -12.59,8.38 -38.8,20.84 -69.91,33.24 -14.95,5.95 -21.83,9.21 -23.63,11.17 -1.39,1.53 -6.99,10.64 -12.44,20.25 -5.44,9.61 -13.64,23.9 -18.21,31.77 -4.57,7.86 -8.31,14.46 -8.31,14.66 0,0.21 -2.73,5 -6.06,10.64 -7.05,11.94 -14.21,21.25 -20.2,26.25 -15.54,12.98 -26.38,20.61 -29.3,20.64 -0.59,0.01 -2.2,-1.23 -3.6,-2.74 z"
      fill="rgba(0,0,0,1)"
      id="path1"
    />
  </g>
</svg>